<svg width="18" height="14" viewBox="0 0 18 14" fill="none" xmlns="http://www.w3.org/2000/svg">
<path d="M6.67994 -9.53674e-07V1.46H1.73994V6.04H6.17994V7.5H1.73994V12.54H6.67994V14H-5.84424e-05V-9.53674e-07H6.67994ZM12.0807 4V4.48C12.4941 4.16 13.0274 4 13.6807 4H14.6007C15.6807 4 16.4807 4.25333 17.0007 4.76C17.5341 5.26667 17.8007 6.08 17.8007 7.2V14H16.1007V6.8C16.1007 6.4 15.9807 6.08667 15.7407 5.86C15.5141 5.62 15.2007 5.5 14.8007 5.5H13.4807C13.0407 5.5 12.7141 5.62 12.5007 5.86C12.2874 6.08667 12.1807 6.33333 12.1807 6.6V14H10.4807V4H12.0807Z" fill="#242424"/>
</svg>
